<?xml version="1.0" encoding="utf-8"?><svg xmlns="http://www.w3.org/2000/svg" xmlns:xlink="http://www.w3.org/1999/xlink" width="1366" height="578" preserveAspectRatio="xMidYMid" viewBox="0 0 1366 578" style="z-index:1;margin-right:-2px;display:block;background-repeat-y:initial;background-repeat-x:initial;background-color:rgb(1, 44, 50);animation-play-state:paused" ><g transform="translate(683,289) scale(1,1) translate(-683,-289)" style="transform:matrix(1, 0, 0, 1, 0, 0);animation-play-state:paused" ><path d="M -100 339.89 C -74.35 346.32 -73.43 343.12 -49.48 343.12 S -24.17 340.75 1.03 340.75 S 26.38 343.44 51.55 343.44 S 77.9 337.71 102.06 337.71 S 127.98 343.04 152.58 343.04 S 179.25 338.13 203.1 338.13 S 229.36 337.87 253.61 337.87 S 279.07 344.65 304.13 344.65 S 330.55 343.94 354.65 343.94 S 380.23 335.73 405.16 335.73 S 431.61 348.36 455.68 348.36 S 481.75 336.83 506.19 336.83 S 531.52 346.76 556.71 346.76 S 581.99 345.28 607.23 345.28 S 632.6 338.51 657.74 338.51 S 684.27 340.88 708.26 340.88 S 733.74 342.88 758.77 342.88 S 784.72 348.26 809.29 348.26 S 834.73 336.29 859.81 336.29 S 885.14 337.86 910.32 337.86 S 936.76 347.09 960.84 347.09 S 987.09 336.28 1011.35 336.28 S 1037.64 344.02 1061.87 344.02 S 1087.92 342.71 1112.39 342.71 S 1138.99 341.64 1162.9 341.64 S 1188.39 342.7 1213.42 342.7 S 1239.92 345.64 1263.94 345.64 S 1290.49 346.19 1314.45 346.19 S 1339.89 335.61 1364.97 335.61 S 1390.32 344.58 1415.48 344.58 S 1441.98 341.49 1466 341.49 S 1492.37 339.78 1516.52 339.78 L 1466 578 L -100 578 Z" fill="#0f3135" stroke-width="0" transform="matrix(1,0,0,1,0,0)" style="transform:matrix(1, 0, 0, 1, 0, 0);animation-play-state:paused" ></path>
<path d="M -100 352.47 C -73.61 354.09 -73.32 356.63 -48.15 356.63 S -21.57 359.06 3.71 359.06 S 30.54 365.23 55.56 365.23 S 81.8 361.63 107.42 361.63 S 133.59 355.53 159.27 355.53 S 185.35 350.86 211.13 350.86 S 237.23 357.49 262.98 357.49 S 289.5 359.36 314.83 359.36 S 341.6 358.02 366.69 358.02 S 393.66 352.56 418.54 352.56 S 444.48 355.36 470.4 355.36 S 496.64 357.84 522.25 357.84 S 548.28 358 574.11 358 S 600.2 363.13 625.96 363.13 S 652.76 354.79 677.81 354.79 S 704.6 360.09 729.67 360.09 S 756.05 364.43 781.52 364.43 S 808.33 350.55 833.38 350.55 S 860.05 351.2 885.23 351.2 S 911.81 350.82 937.09 350.82 S 963.58 351.59 988.94 351.59 S 1015.06 356.3 1040.79 356.3 S 1067.24 364.66 1092.65 364.66 S 1119.52 349.77 1144.5 349.77 S 1171.16 354.67 1196.36 354.67 S 1222.75 359.52 1248.21 359.52 S 1274.15 355.35 1300.07 355.35 S 1326.8 360.26 1351.92 360.26 S 1377.94 352.83 1403.77 352.83 S 1429.93 351.24 1455.63 351.24 S 1482.07 363.41 1507.48 363.41 L 1466 578 L -100 578 Z" fill="#254346" stroke-width="0" transform="matrix(1,0,0,1,1.1340199708938599,0)" style="transform:matrix(1, 0, 0, 1, 1.13402, 0);animation-play-state:paused" ></path>
<path d="M -100 370.5 C -72.15 364.75 -71.97 383.6 -46.73 383.6 S -19.33 374.92 6.53 374.92 S 34.55 381.51 59.8 381.51 S 87.01 378.27 113.06 378.27 S 140.25 383 166.33 383 S 193.54 372.39 219.59 372.39 S 246.45 373.31 272.86 373.31 S 300.56 378.27 326.12 378.27 S 353.85 369.99 379.39 369.99 S 406.62 375.93 432.65 375.93 S 460.18 379.04 485.92 379.04 S 512.95 373.1 539.18 373.1 S 566.03 382.23 592.45 382.23 S 619.59 371.97 645.71 371.97 S 673.76 373.15 698.98 373.15 S 726.15 370.86 752.24 370.86 S 779.71 375.82 805.51 375.82 S 833.33 364.89 858.78 364.89 S 886.18 373.64 912.04 373.64 S 938.99 367.64 965.31 367.64 S 993.34 382.23 1018.57 382.23 S 1045.97 364.23 1071.84 364.23 S 1099.66 380.85 1125.1 380.85 S 1151.84 366.04 1178.37 366.04 S 1206.32 377.73 1231.63 377.73 S 1259.3 371.36 1284.9 371.36 S 1312.97 371.05 1338.16 371.05 S 1365.49 366.05 1391.43 366.05 S 1418.59 372.17 1444.69 372.17 S 1472.06 366.45 1497.96 366.45 L 1466 578 L -100 578 Z" fill="#3b5658" stroke-width="0" transform="matrix(1,0,0,1,3.5863146781921387,0)" style="transform:matrix(1, 0, 0, 1, 3.58631, 0);animation-play-state:paused" ></path>
<path d="M -100 399.27 C -71.24 400.77 -71.55 393.33 -45.24 393.33 S -16.8 396.28 9.51 396.28 S 38.26 397.1 64.27 397.1 S 92.2 390.72 119.02 390.72 S 146.54 401.5 173.78 401.5 S 201.26 381.28 228.53 381.28 S 256.62 387.59 283.29 387.59 S 311.15 381.19 338.04 381.19 S 366.35 388.24 392.8 388.24 S 420.31 386.89 447.55 386.89 S 475.26 389.12 502.31 389.12 S 530.47 385.47 557.06 385.47 S 585.14 400.91 611.82 400.91 S 639.93 391.09 666.57 391.09 S 694.46 391.76 721.33 391.76 S 749.08 390.76 776.08 390.76 S 804.77 392.98 830.84 392.98 S 858.6 380.05 885.59 380.05 S 913.33 390.84 940.35 390.84 S 968.28 384.66 995.1 384.66 S 1023.23 381.86 1049.86 381.86 S 1078.47 390.49 1104.62 390.49 S 1132.86 383.65 1159.37 383.65 S 1187.11 379.27 1214.13 379.27 S 1242.36 390.17 1268.88 390.17 S 1297.11 379.69 1323.64 379.69 S 1351.42 399.62 1378.39 399.62 S 1407.16 384.97 1433.15 384.97 S 1461.42 396.97 1487.9 396.97 L 1466 578 L -100 578 Z" fill="#51696b" stroke-width="0" transform="matrix(1,0,0,1,6.4136857986450195,0)" style="transform:matrix(1, 0, 0, 1, 6.41369, 0);animation-play-state:paused" ></path>
<path d="M -100 398.71 C -70.51 404.33 -71.47 408.68 -43.67 408.68 S -15.37 404.66 12.66 404.66 S 42.11 414.65 68.99 414.65 S 97.2 412.19 125.32 412.19 S 153.82 417.98 181.65 417.98 S 211.04 394.84 237.99 394.84 S 266.19 409.73 294.32 409.73 S 323.07 405.83 350.65 405.83 S 379.5 406.21 406.98 406.21 S 436.41 402.63 463.31 402.63 S 492.4 415.03 519.64 415.03 S 547.98 395.24 575.97 395.24 S 605.54 409.51 632.3 409.51 S 661.32 398.39 688.63 398.39 S 717.94 413 744.96 413 S 773.17 393.29 801.29 393.29 S 829.69 409.6 857.63 409.6 S 886.4 404.17 913.96 404.17 S 943.38 414.96 970.29 414.96 S 999.13 398.13 1026.62 398.13 S 1056.07 406.14 1082.95 406.14 S 1111.81 402.53 1139.28 402.53 S 1168.46 408.88 1195.61 408.88 S 1225.18 393.77 1251.94 393.77 S 1281.07 417.52 1308.27 417.52 S 1336.8 396.33 1364.6 396.33 S 1393.88 410.83 1420.94 410.83 S 1450.29 395.96 1477.27 395.96 L 1466 578 L -100 578 Z" fill="#677d7f" stroke-width="0" transform="matrix(1,0,0,1,8.86598014831543,0)" style="transform:matrix(1, 0, 0, 1, 8.86598, 0);animation-play-state:paused" ></path>
<path d="M -100 408.53 C -69.78 420.08 -70.38 430.63 -42 430.63 S -11.79 409.7 16 409.7 S 45.17 422.56 74 422.56 S 103.94 415.73 132 415.73 S 162.13 427.07 190 427.07 S 219.86 419.75 248 419.75 S 277.75 426.39 306 426.39 S 335.54 434.58 364 434.58 S 393.02 424.02 422 424.02 S 452 409.09 480 409.09 S 509.38 424.66 538 424.66 S 567.46 413.71 596 413.71 S 625.79 428.23 654 428.23 S 683.47 407.88 712 407.88 S 741.5 419.72 770 419.72 S 799.23 416.91 828 416.91 S 857.17 417.04 886 417.04 S 916.35 412.98 944 412.98 S 973.1 428.51 1002 428.51 S 1031.51 420.09 1060 420.09 S 1090.2 430.98 1118 430.98 S 1148.31 411.34 1176 411.34 S 1205.45 413.31 1234 413.31 S 1264.18 416.02 1292 416.02 S 1322.37 432.78 1350 432.78 S 1380.28 420.24 1408 420.24 S 1437.46 425.7 1466 425.7 S 1496.23 417.89 1524 417.89 L 1466 578 L -100 578 Z" fill="#7e9193" stroke-width="0" transform="matrix(1,0,0,1,10,0)" style="transform:matrix(1, 0, 0, 1, 10, 0);animation-play-state:paused" ></path>
<path d="M -100 425.16 C -69.66 423.01 -69.99 451.63 -40.23 451.63 S -9.66 431.85 19.54 431.85 S 50.48 453.47 79.31 453.47 S 109.26 431.53 139.08 431.53 S 169.79 449.97 198.85 449.97 S 229.43 432.2 258.63 432.2 S 288.87 449.01 318.4 449.01 S 348.44 426.85 378.17 426.85 S 409.48 440.55 437.94 440.55 S 468.28 433.66 497.71 433.66 S 528.45 433.82 557.48 433.82 S 587.57 434.38 617.25 434.38 S 648.08 442.59 677.02 442.59 S 707.19 433.69 736.79 433.69 S 768.08 439.54 796.56 439.54 S 826.88 435.17 856.34 435.17 S 887.65 448.03 916.11 448.03 S 946.72 429.2 975.88 429.2 S 1007.06 441.58 1035.65 441.58 S 1066.7 434.86 1095.42 434.86 S 1126.54 451.61 1155.19 451.61 S 1185.89 434.03 1214.96 434.03 S 1245.68 439.76 1274.73 439.76 S 1305.04 434.48 1334.5 434.48 S 1364.39 444.87 1394.27 444.87 S 1424.8 436.38 1454.05 436.38 S 1484.03 449.02 1513.82 449.02 L 1466 578 L -100 578 Z" fill="#95a6a7" stroke-width="0" transform="matrix(1,0,0,1,8.86598014831543,0)" style="transform:matrix(1, 0, 0, 1, 8.86598, 0);animation-play-state:paused" ></path>
<path d="M -100 439.63 C -68.41 443.87 -67.92 469.03 -38.35 469.03 S -7.32 443.93 23.31 443.93 S 55.28 466.25 84.96 466.25 S 116.61 438.16 146.61 438.16 S 177.84 464.89 208.27 464.89 S 239.55 443.77 269.92 443.77 S 301.05 458.2 331.57 458.2 S 363.45 449.13 393.23 449.13 S 424.65 469.53 454.88 469.53 S 486.35 470.21 516.54 470.21 S 547.6 467.87 578.19 467.87 S 610.22 460.6 639.84 460.6 S 671.64 456.87 701.5 456.87 S 732.64 442.93 763.15 442.93 S 794.15 446.25 824.8 446.25 S 856.33 442.53 886.46 442.53 S 917.45 469.51 948.11 469.51 S 979.27 442.48 1009.76 442.48 S 1041.09 468.47 1071.42 468.47 S 1103.52 442.88 1133.07 442.88 S 1164.19 457.8 1194.72 457.8 S 1225.64 441.76 1256.38 441.76 S 1288.48 457.67 1318.03 457.67 S 1350.18 437.42 1379.69 437.42 S 1411.88 469.86 1441.34 469.86 S 1473.04 436.74 1502.99 436.74 L 1466 578 L -100 578 Z" fill="#adbcbc" stroke-width="0" transform="matrix(1,0,0,1,6.4136857986450195,0)" style="transform:matrix(1, 0, 0, 1, 6.41369, 0);animation-play-state:paused" ></path>
<path d="M -100 452.54 C -67.22 451.09 -67.65 457.26 -36.34 457.26 S -3.12 453.36 27.32 453.36 S 60.22 479.67 90.98 479.67 S 123.18 453.43 154.63 453.43 S 187.76 480.32 218.29 480.32 S 250.64 465 281.95 465 S 315.22 487.34 345.61 487.34 S 377.68 454.09 409.27 454.09 S 442.4 478.24 472.93 478.24 S 504.83 452.84 536.59 452.84 S 569.55 488 600.24 488 S 633.42 453.13 663.9 453.13 S 696.19 456.9 727.56 456.9 S 760.69 461.67 791.22 461.67 S 823.99 479.91 854.88 479.91 S 887.9 455.89 918.54 455.89 S 950.78 485.32 982.2 485.32 S 1014.43 457.91 1045.85 457.91 S 1078.01 479.83 1109.51 479.83 S 1141.6 451.27 1173.17 451.27 S 1205.16 487.58 1236.83 487.58 S 1269.28 458.23 1300.49 458.23 S 1333.31 479.27 1364.15 479.27 S 1397.27 453.44 1427.8 453.44 S 1459.83 480.33 1491.46 480.33 L 1466 578 L -100 578 Z" fill="#c6d2d2" stroke-width="0" transform="matrix(1,0,0,1,3.5863142013549805,0)" style="transform:matrix(1, 0, 0, 1, 3.58631, 0);animation-play-state:paused" ></path>
<path d="M -100 477.1 C -65.85 470.29 -66.62 504.09 -34.2 504.09 S 0.07 466.35 31.6 466.35 S 65.09 469.67 97.39 469.67 S 131.25 476.96 163.19 476.96 S 196.62 476.95 228.99 476.95 S 262.33 492.24 294.79 492.24 S 327.8 494.31 360.59 494.31 S 393.83 473.68 426.39 473.68 S 460.18 499.95 492.18 499.95 S 526.36 495.34 557.98 495.34 S 591.38 475.99 623.78 475.99 S 656.71 496.77 689.58 496.77 S 723.12 495.14 755.38 495.14 S 789.38 475.14 821.18 475.14 S 855.4 492.8 886.97 492.8 S 920.45 476.38 952.77 476.38 S 987.09 491.32 1018.57 491.32 S 1052.19 465.56 1084.37 465.56 S 1117.87 497.55 1150.17 497.55 S 1184.03 475.1 1215.97 475.1 S 1249.99 502.72 1281.76 502.72 S 1314.78 472.09 1347.56 472.09 S 1381.74 475.12 1413.36 475.12 S 1447.49 470.56 1479.16 470.56 L 1466 578 L -100 578 Z" fill="#dfe8e8" stroke-width="0" transform="matrix(1,0,0,1,1.1340198516845703,0)" style="transform:matrix(1, 0, 0, 1, 1.13402, 0);animation-play-state:paused" ></path></g></svg>